<?xml version="1.0" encoding="UTF-8" standalone="no"?>
<svg xmlns:rdf="http://www.w3.org/1999/02/22-rdf-syntax-ns#" xmlns="http://www.w3.org/2000/svg" height="123.94423" width="207.66667" version="1.1" xmlns:cc="http://creativecommons.org/ns#" xmlns:dc="http://purl.org/dc/elements/1.1/" viewBox="0 0 207.66667 123.94423"><path d="M108.31456,83.28527h-1.20228l-.3279.3279a59.22523,59.22523,0,0,1,0,6.23l.3279.3279h1.20228l.3279-.3279a29.67545,29.67545,0,0,0,0-6.23Z" transform="translate(0)" fill="#115740"/><path d="M100.99158,83.28527H99.7893l-.3279.3279a29.67545,29.67545,0,0,0,0,6.23l.3279.3279h1.20228l.3279-.3279a59.22523,59.22523,0,0,1,0-6.23Q100.99158,83.44918,100.99158,83.28527Z" transform="translate(0)" fill="#115740"/><path d="M104.59842,83.28527h-1.20228l-.3279.3279v6.23l.3279.3279h1.20228l.3279-.3279v-6.23Z" transform="translate(0)" fill="#115740"/><path d="M121.21176,40.11246a1.76289,1.76289,0,0,0,.98368-.3279,3.81391,3.81391,0,0,0,.65579-.98368l1.31158-2.51387a1.74419,1.74419,0,0,0,.32789-.87439c0-.43719-.21859-.65578-.76508-.65578a1.241,1.241,0,0,0-.87439.3279,10.58331,10.58331,0,0,0-.76509.98368l-1.31157,2.51386a1.74431,1.74431,0,0,0-.32791.87439C120.44666,39.89387,120.77455,40.11246,121.21176,40.11246Z" transform="translate(0)" fill="#115740"/><path d="M177.82825,59.78615h-13.2251a4.09057,4.09057,0,0,0,.54649-1.96738c0-.98368-1.093-1.63947-3.06036-1.63947-2.40456,0-3.60684.98369-3.60684,2.07667,0,.98368,1.093,1.31157,6.77649,2.62317s7.76017,2.62316,7.76017,5.6835a10.44945,10.44945,0,0,1-3.279,7.323c-2.73246,2.73246-6.88579,4.48123-16.94124,4.48123-12.0228,0-15.52034-1.96737-15.52034-6.1207a7.39758,7.39758,0,0,1,.98367-3.82544H151.706a4.06507,4.06507,0,0,0-.54649,2.186c0,1.093.98367,1.74878,3.06035,1.74878,2.29527,0,3.60686-.87439,3.60686-2.29528,0-1.31157-1.20229-1.63947-7.21369-3.16964-5.68352-1.42089-7.323-2.51387-7.323-5.57421a9.96375,9.96375,0,0,1,3.16965-6.66719c2.95105-2.951,7.10439-4.48123,16.94124-4.48123,10.92982,0,14.97386,1.74878,14.97386,5.9021a6.35172,6.35172,0,0,1-.54648,3.71615ZM123.507,76.83667a42.15117,42.15117,0,0,0-4.59053-2.84175,29.727,29.727,0,0,0-9.29035-3.06036l7.10439-13.44368h-9.07176l3.60685-6.8858h34.31964l-3.60686,6.8858H133.781ZM110.6098,89.84316c.1093.1093.21859.2186.21859.32791h1.20228a1.509,1.509,0,0,1,.4372-.32791c.10929-.65577.21859-1.31157.32791-1.85806,1.20227,0,2.40455,0,3.60684-.1093,3.93474-.1093,7.76018-.21859,11.69491-.54649l.6558.76508h0c-.87439,2.951-4.59053,6.55789-10.38334,9.61824a33.58457,33.58457,0,0,1-14.20877,3.49754h-.10929a33.58454,33.58454,0,0,1-14.20878-3.49754c-5.79281-3.06035-9.50894-6.55789-10.38333-9.61825l.65579-.76508c3.93473.21859,7.76017.43719,11.69491.54649,1.31157,0,2.73245.1093,4.044.1093a5.5512,5.5512,0,0,0,.3279,1.85806,1.5084,1.5084,0,0,0,.43719.32791h1.20227c.1093-.10929.21859-.21859.21859-.32791a19.16592,19.16592,0,0,1,0-6.12069c-.10929-.10929-.21859-.21859-.21859-.32789H96.61964a1.509,1.509,0,0,1-.43719.32789c-.1093.65579-.2186,1.20228-.3279,1.85807-1.31158,0-2.73246,0-4.044.1093-3.93474.10929-7.76018.21859-11.69491.54649l-.65579-.87439v-.21859c.87439-2.951,4.59052-6.5579,10.38333-9.61825A32.00054,32.00054,0,0,1,104.052,72.02755h.10929A33.23446,33.23446,0,0,1,118.37,75.52508c5.79283,3.06035,9.50895,6.66719,10.38334,9.61825v.32788l-.65579.87439c-3.93473-.21859-7.76017-.43718-11.69491-.54649-1.20228,0-2.40456-.10929-3.60684-.10929a5.1054,5.1054,0,0,0-.3279-1.85807,1.5089,1.5089,0,0,0-.43721-.3279h-1.20228c-.10929.10929-.21858.21858-.21858.3279a18.47748,18.47748,0,0,1,0,6.0114ZM76.61807,50.71439h31.91509l-3.60684,6.77649H88.53158l-1.85807,3.27894h16.504L99.68,67.32772H83.28526L81.42719,70.716H98.36842l-.1093.1093A31.306,31.306,0,0,0,88.75018,73.995a36.28877,36.28877,0,0,0-5.46491,3.49754H62.3ZM44.48439,78.25755c-10.92983,0-15.41106-2.62316-15.41106-7.54158,0-2.51386.65579-4.26262,2.07667-6.99509l1.74877-3.279H46.99825L43.5007,67.10912a6.0633,6.0633,0,0,0-.76509,2.40457c0,.98369.4372,1.63948,1.74877,1.63948,1.85807,0,2.73246-1.20228,3.93474-3.49755L57.38157,50.4958h16.504L66.344,64.81386c-2.186,4.044-3.49754,6.23-5.57421,8.416-3.16964,3.38826-8.416,5.02773-16.28543,5.02773Zm5.02771-45.796H54.977l.98368,4.26264,2.186-4.26264H62.9558L57.70949,42.2984H52.46316l-.98369-4.59053L49.07491,42.2984H44.26579Zm27.43387,0-1.31158,2.51387H69.623l-.7651,1.20228h5.5742l-1.20228,2.40455h-5.5742l-.6558,1.20228h6.23L71.91826,42.2984H59.89544l5.24631-9.83685Zm6.77648,0-1.20227,4.59053,3.38824-4.59053h5.57421L90.171,37.05211l3.60685-4.59053h5.3556L90.2803,42.29843H84.37825l.87439-3.82544-3.27895,3.82544h-5.9021l1.85806-9.83685Zm19.4551,0h6.0114l-.1093,3.06036L112.14,32.46158h5.57421l-7.86947,6.77649-1.63948,3.06036h-6.23l1.74878-3.279-.5465-6.5579Zm25.79437.5465a2.18645,2.18645,0,0,1,1.42089,2.07666,6.57675,6.57675,0,0,1-.6558,2.51387,11.31313,11.31313,0,0,1-2.07666,3.16965c-1.31157,1.31157-3.49755,1.85806-6.66719,1.85806a10.91357,10.91357,0,0,1-4.91842-.76508,2.18644,2.18644,0,0,1-1.42089-2.07667,6.57688,6.57688,0,0,1,.6558-2.51386,11.31363,11.31363,0,0,1,2.07666-3.16965c1.31157-1.31158,3.49755-1.85807,6.66719-1.85807A11.541,11.541,0,0,1,128.97192,33.00805Zm13.99018-.5465a3.65381,3.65381,0,0,1,2.51385.65579,2.0778,2.0778,0,0,1,.5465,1.42088,3.64776,3.64776,0,0,1-.98368,2.51387,3.33075,3.33075,0,0,1-1.093.76508,9.1817,9.1817,0,0,1-1.53017.43719c.98368.3279,1.42089.76509,1.42089,1.31158a2.84973,2.84973,0,0,1-.3279,1.20228l-.76509,1.53018h-6.12073l.98368-1.96738a1.55334,1.55334,0,0,0,.21859-.65578c0-.4372-.21859-.65579-.76509-.65579h-.87439L134.4368,42.1891h-5.9021l5.24632-9.83684h9.18106Zm12.78788,0-2.40455,4.48123,4.91842-4.48123h5.57422l-5.4649,4.80913.65579,5.02772h-5.90208l-.3279-4.37193-2.29527,4.37193H144.383l5.24632-9.83685ZM201.65526,56.8351c-3.49755-11.69491-18.79929-25.5758-40.87753-37.2707C141.21335,9.2904,118.15141,5.68352,104.27054,5.68352h-.65578c-13.9902,0-37.16142,3.60684-56.61651,13.88087C24.8107,31.15,9.61825,45.03088,6.0114,56.8351a26.43032,26.43032,0,0,0-.43719,5.137h0a26.43032,26.43032,0,0,0,.43719,5.137C9.509,78.804,24.8107,92.68491,46.889,104.37982c19.67363,10.38333,42.84487,13.99018,56.835,13.88087h.43718c13.88088,0,37.05211-3.60685,56.5072-13.88087,22.07823-11.58562,37.38-25.4665,40.87755-37.2707a26.42953,26.42953,0,0,0,.43718-5.137h0a26.48638,26.48638,0,0,0-.32788-5.137Z" transform="translate(0)" fill="#115740"/><path d="M139.46457,36.50562l.2186-.4372a1.18834,1.18834,0,0,0,.10931-.54649c0-.3279-.2186-.43719-.65581-.43719h-.87439L136.95071,37.38h1.093a1.80621,1.80621,0,0,0,1.42088-.87438Z" transform="translate(0)" fill="#115740"/><path d="M88.75017,74.10421a32.30012,32.30012,0,0,1,9.50895-3.16965l.1093-.21859H81.42719l1.85807-3.38823h16.504l3.49754-6.5579h-16.504l1.85807-3.279h16.39473l3.60685-6.77648H76.61807L62.3,77.60176H83.176a44.4293,44.4293,0,0,1,5.57421-3.49755ZM73.88561,50.71439h-16.504L48.41912,67.87421c-1.20228,2.29525-2.186,3.49754-3.93473,3.49754a1.52935,1.52935,0,0,1-1.74877-1.63947,5.57981,5.57981,0,0,1,.76509-2.40457l3.49754-6.66719H32.89877L31.15,63.93947a12.84491,12.84491,0,0,0-2.07667,6.99509c0,4.91841,4.48123,7.54158,15.41106,7.54158,7.86947,0,13.11579-1.63948,16.28543-4.80912,2.186-2.186,3.49755-4.37194,5.57421-8.416l7.54158-14.53667Zm89.73387-.65579c-9.94616,0-13.99018,1.53018-16.94123,4.48123a9.96375,9.96375,0,0,0-3.16964,6.66717c0,3.06035,1.63946,4.15333,7.323,5.57421,6.0114,1.53017,7.21369,1.85806,7.21369,3.16965,0,1.42088-1.31159,2.29526-3.60686,2.29526-2.07666,0-3.06035-.6558-3.06035-1.74878a5.376,5.376,0,0,1,.5465-2.186H138.48087a9.02027,9.02027,0,0,0-.98368,3.82544c0,4.15334,3.49755,6.12069,15.52034,6.12069,10.16474,0,14.20879-1.74877,16.94124-4.48121a10.26009,10.26009,0,0,0,3.279-7.323c0-3.06036-2.07666-4.37193-7.76018-5.68351s-6.77649-1.74877-6.77649-2.62316c0-1.093,1.20229-2.07667,3.60684-2.07667,1.96738,0,3.06037.65579,3.06037,1.63948a4.09071,4.09071,0,0,1-.5465,1.96737h13.22509a9.20731,9.20731,0,0,0,.76509-3.82544c-.21862-4.044-4.15334-5.79281-15.19248-5.79281Zm-54.977,39.78456-.3279.32791h-1.20228l-.3279-.32791a59.23045,59.23045,0,0,0,0-6.23l.3279-.3279h1.20228l.3279.3279A29.67535,29.67535,0,0,1,108.64247,89.84316Zm-3.71614,0-.3279.32791h-1.20228l-.32791-.32791v-6.23l.32791-.3279h1.20228l.3279.3279A59.23045,59.23045,0,0,1,104.92633,89.84316Zm-3.71615,0-.32789.32791H99.68l-.3279-.32791a29.67535,29.67535,0,0,1,0-6.23l.3279-.3279h1.20228l.32789.3279a59.23045,59.23045,0,0,0,0,6.23Zm10.82054-6.4486a1.5088,1.5088,0,0,0,.4372.32791c.10929.65579.21859,1.31157.32789,1.85807,1.20228,0,2.40455,0,3.60685.10929,3.93473.1093,7.76017.21859,11.6949.5465l.6558-.87439V85.034c-.87439-2.951-4.59053-6.5579-10.38334-9.61825a33.58457,33.58457,0,0,0-14.20877-3.49754h-.1093a33.58453,33.58453,0,0,0-14.20877,3.49754c-5.79283,3.06039-9.509,6.66725-10.38335,9.61825v.21859l.65579.87439c3.93473-.21859,7.76017-.43719,11.69491-.5465,1.31157,0,2.73245-.1093,4.044-.1093a5.551,5.551,0,0,1,.3279-1.85806,1.50868,1.50868,0,0,1,.43719-.3279H97.8219c.1093.1093.21859.21859.21859.3279a19.16483,19.16483,0,0,0,0,6.1207c-.10929.10929-.21859.21859-.21859.3279H96.61965a1.50885,1.50885,0,0,0-.43719-.3279c-.10929-.65579-.21859-1.20228-.3279-1.85807-1.31158,0-2.73246,0-4.044-.1093-3.93474-.10929-7.76018-.21859-11.69491-.54649l-.65579.76509c.87439,2.951,4.59052,6.55787,10.38333,9.61824a32.00057,32.00057,0,0,0,14.20877,3.49754h.1093A33.23456,33.23456,0,0,0,118.37,97.60333c5.79281-3.06036,9.50895-6.66719,10.38334-9.61825h0l-.65579-.76509c-3.93474.2186-7.76017.43721-11.69491.5465-1.20228,0-2.40456.1093-3.60685.1093a5.10525,5.10525,0,0,1-.32789,1.85807,1.5089,1.5089,0,0,1-.4372.3279h-1.20228c-.10929-.1093-.21859-.2186-.21859-.3279a19.16483,19.16483,0,0,0,0-6.1207c.1093-.1093.21859-.21859.21859-.3279a4.0976,4.0976,0,0,0,1.20228.1093Zm90.06175-21.42245a26.4305,26.4305,0,0,1-.4372,5.137c-3.49754,11.6949-18.79928,25.57579-40.87753,37.27069-19.56438,10.274-42.62632,13.88087-56.50719,13.88087h-.43718c-13.88087,0-37.1614-3.60685-56.83509-13.88087C24.92,92.7942,9.61826,78.91332,6.12072,67.10912a26.42877,26.42877,0,0,1-.4372-5.137h0a26.42877,26.42877,0,0,1,.4372-5.137C9.61825,45.03088,24.8107,31.15,46.99825,19.56439,66.56263,9.29036,89.62456,5.68351,103.50544,5.68351h.65577c13.88088,0,36.94282,3.60685,56.50719,13.88088C182.74664,31.15,198.0484,45.03088,201.546,56.8351a26.40918,26.40918,0,0,1,.54649,5.137Zm5.02772-6.3393-.10931-.3279c-3.93474-13.33438-19.89229-28.19895-43.7193-40.76824C142.8528,3.82544,118.69788,0,104.16122,0h-.65578C88.96877,0,64.81386,3.82544,44.37509,14.53667,20.43877,27.106,4.59053,41.97053.65579,55.30492l-.1093.3279a37.04139,37.04139,0,0,0,0,12.67859l.1093.3279c3.93474,13.33438,19.89228,28.199,43.7193,40.76825,20.43877,10.71123,44.59368,14.53667,59.13034,14.53667h.65577c14.53667,0,38.69158-3.82544,59.13036-14.53667,23.827-12.5693,39.78457-27.43386,43.7193-40.76825l.10932-.3279a31.06438,31.06438,0,0,0,.54649-6.3393,40.21628,40.21628,0,0,0-.54649-6.33931ZM51.47947,37.8172l.98369,4.59052h5.137l5.24631-9.83684h-4.8091l-2.186,4.26263L54.977,32.46158H49.5121l-5.24631,9.83685h4.80912Zm94.21508,12.89719H111.37491l-3.60684,6.88579h9.07176l-7.10439,13.44369a36.78249,36.78249,0,0,1,9.29035,3.06035,46.73932,46.73932,0,0,1,4.59052,2.84175l10.274-19.23648h8.19738l3.60684-6.9951Zm4.80911-8.30667,2.29527-4.37193.3279,4.37193h5.9021L158.37312,37.38l5.46491-4.80913h-5.57421l-4.91842,4.48123,2.4046-4.48123h-6.0114l-5.24632,9.83684Zm-78.69474,0,1.31158-2.51386h-6.23l.65579-1.20228H73.2298L74.5414,36.287H68.85789l.65579-1.20228h6.01141l1.31157-2.51386H65.14175L59.89544,42.4077Zm36.287,0,1.63947-3.06035,7.86947-6.77649H112.0307l-3.06035,3.06035.10929-3.06035h-6.0114l.43721,6.66719-1.74878,3.279H108.096ZM120.77456,38.473l1.31158-2.51387a2.38006,2.38006,0,0,1,.76508-.98368,1.241,1.241,0,0,1,.87439-.3279c.54649,0,.76509.21859.76509.65579a1.74442,1.74442,0,0,1-.3279.87439l-1.31158,2.51386a3.81459,3.81459,0,0,1-.65579.98368,1.336,1.336,0,0,1-.98368.32789c-.5465,0-.76509-.21859-.76509-.65578A2.95778,2.95778,0,0,1,120.77456,38.473Zm-5.46491-1.20228a6.13344,6.13344,0,0,0-.6558,2.51386,2.09226,2.09226,0,0,0,1.42089,2.07667,12.71512,12.71512,0,0,0,4.91842.76508c3.16964,0,5.35562-.65578,6.66719-1.85806a11.31313,11.31313,0,0,0,2.07666-3.16965,6.13333,6.13333,0,0,0,.6558-2.51387,2.09223,2.09223,0,0,0-1.42089-2.07666,12.71491,12.71491,0,0,0-4.91842-.76509c-3.16964,0-5.35562.65579-6.66719,1.85807A13.23026,13.23026,0,0,0,115.30965,37.27072ZM82.083,42.40772l3.27895-3.82544-.87439,3.82544h5.90211l8.85315-9.83684H93.88719L90.28034,37.1614l1.31158-4.59052H86.01771L82.62946,37.1614l1.20228-4.59052h-5.6835l-1.85807,9.83684Zm56.28861-7.43227h.87438c.43719,0,.6558.10929.6558.43719a1.18848,1.18848,0,0,1-.10929.54649l-.2186.4372c-.3279.54649-.65579.87439-1.20229.87439h-1.093Zm-3.93475,7.43227,1.74878-3.16965H137.06c.54649,0,.76507.21859.76507.65579a1.55366,1.55366,0,0,1-.21859.65578L136.6228,42.517h6.01142l.76507-1.53018a2.84969,2.84969,0,0,0,.3279-1.20228c0-.65578-.4372-1.093-1.42089-1.31157a5.10622,5.10622,0,0,0,1.53017-.43719,3.92565,3.92565,0,0,0,1.093-.76508,3.46245,3.46245,0,0,0,.98368-2.51386,1.88816,1.88816,0,0,0-.5465-1.42089,3.6538,3.6538,0,0,0-2.51387-.65578h-9.181L128.42543,42.517h6.01141Z" transform="translate(0)" fill="#fff"/></svg>