<?xml version="1.0" encoding="utf-8"?>
<!-- Generator: Adobe Illustrator 18.1.1, SVG Export Plug-In . SVG Version: 6.00 Build 0)  -->
<!DOCTYPE svg PUBLIC "-//W3C//DTD SVG 1.1//EN" "http://www.w3.org/Graphics/SVG/1.1/DTD/svg11.dtd">
<svg version="1.1" id="Layer_1" xmlns="http://www.w3.org/2000/svg" xmlns:xlink="http://www.w3.org/1999/xlink" x="0px" y="0px"
	 viewBox="0 0 400 400" enable-background="new 0 0 400 400" xml:space="preserve">
<g>
	<path fill="#231F20" d="M311.1,244.6c0,0,24.4-6.8,36-26.3c13.7-2.8,28.1-18,28.1-31.4c0-16.8-12.6-24.2-12.6-24.2
		s-4.6-12-22.2-23.4c0,0,4.9-5.6,4.9-12c0-6.3-4.9-10.2-13.6-16.6c-8.7-6.3-17.2-9.5-27.9-16.2c-10.7-6.7-34.5-18.1-49.8-21.5
		c-15.3-3.3-24.7-4.4-33.3-4.4c-17.7,0-24.3,2.8-24.3,2.8s-5.4-2.3-17.3-2.3c-12,0-19.2,1-44.7,7.9s-45.1,11.7-65.8,13
		c-20.7,1.3-30.2,2.4-36.6,2.4c-6.4,0-7.4,8.9-7.4,11.6c0,17.3,22.7,40.1,34.8,46.6c0,0-1.1,6.5-1.1,12.3c0,5.8,1.8,28.8,21.1,51
		c25.7,27.2,50.9,30.8,68,41.9c17.1,11.1,22.9,23.1,31.9,36.8c13.7,23,36.9,38.7,62.1,38.7c40.8,0,59.3-39.8,59.3-48.3
		c0-5.6-6.8-6.8-6.8-6.8s5.3-16.3,1.1-31.4c0,0-5.4,9.3-14.2,19.1c0,0-10.6-9.2-8.5-19.5c0,0,8.6-2.5,16.3-10.2c0,0,11.7-2,20-11.1
		c0,0,1.4,2.4,2.8,3.9l5.4-4l0.3,5.3l2.4-0.6C319.8,227.8,318.3,234.7,311.1,244.6z"/>
	<path fill="#185465" d="M270.1,272c0,0,1.6-5.6-5.8-10c0,0,0.9,4.1,0.5,6.8L270.1,272z"/>
	<path fill="#185465" d="M305.4,174c8.4-0.5,19.2,1.8,18.9,10.2c0,0,2.9,4.1,5.5,9.7c0,0,6.3-5,8.8-12.9
		C316.7,171,310,170.5,305.4,174z"/>
	<path fill="#C8932B" d="M291,172.2l17,13.9l-23.5,8.7c0,0,1.9-5.6,0.4-6.3c-17-9.4-45.9-17.8-75.2-23.4c-29.3-5.6-44.7-6-44.7-6
		l9.9,2l10.2,4.1l-34.8,2.5v7.3l-10.6,1c-2.4-5.3-5.1-3.5-8.3-5.7c-2.6-1.6-3.8-4.8-4.1-6.1c-0.3-1.3-1.9-1.2-4.8-2
		c-2.9-0.8-4.1-0.2-4.8,0.9c-0.6,1.1,2.6,0.9,2.6,0.9c-1.1,1.2-6,1.6-6,1.6l-0.1,0.4l2.8,0.5c-0.8,0.9-1.5,4.1,0.4,5.8
		c1.9,1.7,4.2,0.1,4.2,0.1s-1.3,1.8-0.8,2.4c0.5,0.6-1.5,2.5-1.5,4.4c0,3.5,4.4,5.3,4.4,5.3l-19.3,7.8l-1.7,3.1c0,0,0.2,2.8-1.7,3.9
		c-2,1.1-2,2-2.6,2.6c-0.6,0.7-7.1,5.5-7.1,5.5c-4.9-5.1-6-7.5-6-7.5c3.8-3.4,3.7-7.5,3.7-7.5l-3.2-0.5c3.7-2.3,4.1-4.1,4.1-4.1
		c-0.7,0.9-2.1,0.3-2.1,0.3c-0.7-3.5-3.1-3.7-3.9-6.1c-0.8-2.4-4.2-1.7-4.2-1.7c0.7-1.1,2.6-2.4,2.6-2.4c1.1-4.5,2.3-4.7,2.3-6.3
		c0-3.3-6.2-3.9-6.4-3.2c-0.2,0.8,1.3,1.6,1.3,1.6c-3.1,0.8-5.5,2.6-5.5,2.6c-2.6-19.8,0.9-23.5,0.9-23.5c17-0.6,25.3-9.4,25.3-9.4
		l-7.9,0.3l-6.3-3.3l14-4.8c22.3-0.5,38.5-15.8,38.5-15.8s-13.1,8.1-27.3,8.1c-10.8,0-23.4-4.1-33.9-12.8l-0.4-1.7
		c2.6-0.4,2-1.8,3.1-3.1c1.1-1.3,2.9-0.5,2.8-1.1c-0.1-0.5-1.3-0.6-1.3-0.6l-0.1-0.9c0,0,3.8,0,3.8-1.7c0-1.7-2.6-0.2-6.2-2l-2-4.5
		c14.7-0.8,31.7-5.5,31.7-5.5c1.4,2.6,4.1,3,4.1,3l-2.3,1.4c0,0,2,0.4,3.2,0.2c1.1-0.2,1.7-0.6,3.4-0.5c1.7,0.1,4,0.3,3.6-1.1
		c-0.4-1.4-2.9-2.3-2.9-2.3l0.2-0.6l3.8,1c-1.1-2,0.1-4,0.1-4l32.3-7.3c0,0,2,4.8,5.6,4.7c5.7-0.8,5,1.3,7.8,1.5
		c-1.5-1.5-3.4-5.2-3.4-5.2l0.5-0.3l3.5,2.8c3.5-2.9,7.6-1.4,7.8-2c0.2-0.6-1.9-2.2-1.5-2.6c0.4-0.5,2.9,2.3,3.5,1.8
		c0.7-0.5-1.1-4.3-1.1-4.3c10.9-0.7,27.9,1.2,27.9,1.2l0.2,0.6c-3.2,0.7,0.5,4.2,0.5,4.2l-0.9,0.3c0,0-2-2-2.8-2
		c-0.8,0-1.6,0.8-1.6,2.1c0,1.4,2.9,3,4.8,3c2,0,3.5-1.1,3.5-1.1c0,0.8,5.1,0.5,4.8-0.8c-0.2-1.2-3-3.5-3-3.5l5.4,2.6l2-3.2
		c14.3,3,21.8,5.8,21.8,5.8s-2.2,0.2-3.7,1.4c-1.1,0.6,0,2.2,0,2.2c-1.1-0.5-1.5,0.4-1.5,0.4c1.4,2.9,4.4,2.5,4.4,2.5l-0.6-1.4
		c1.5,0,2,1.4,2,1.4s2-0.1,4-0.2s3.9,1.5,3.9,1.5l-0.4-1.3l1.4-1.8l1,1.3h2.6l2.7,2.4l0.4-2.2c0.3,0.9,1.4,1.3,1.4,1.3
		c0.3-0.6,1.8-1.5,1.8-1.5c-0.5-1.5,2.9-3.6,2.9-3.6c0.5-3.5-4-3.9-5.1-3.7c-1.1,0.2-0.2,1.5-0.9,1.7c-0.7,0.2-0.8-1.7-1.3-1.6
		c-0.5,0.1-0.3,1.5-0.3,1.5s-2.3-0.2-2.9,0.3c-0.7,0.5-2.4,3.2-2.4,3.2l-13-6.6l3.6-1.4l0.7,0.8c1.4-7.1-7.1-6.5-7.6-6.3
		c-0.5,0.2,1.1,3.5,0.3,3.7c-0.8,0.2-2.3-2.4-2.9-2.4c-0.6,0-3.6,2-3.6,2c-3.1-1.7-11.8-3.2-11.8-3.2s5.6-1.4,12.7-1.4
		c22.9,0,40.6,8.2,46.1,10.7c5.5,2.5,5.7,4.5,5.7,4.5c-1.1-0.6-2.4-1-2.4-1c-0.2,1.6,9,5.3,9,5.3c-2.1-2.3-1.5-3.4-1.5-3.4
		c2.6,3,3.9,1.9,4.7,2.3c0.8,0.4,28.1,15.1,31.1,16.7c2.9,1.7,3.2,3.5,2.3,3.8c-0.8,0.4-1.9-1.7-1.9-1.7c-1.2,1.1-1.2,3.8-0.4,4.1
		c0.8,0.2,0-0.8,1.1-0.6c1.1,0.2,0.8,1.1,2.7,1.5c1.9,0.5,3.9,1.7,3.9,1.7l0.2-2l3.1,3.8c4.3-0.3,7.2,3.5,7.2,7.8
		c0,4.2-2.7,6.3-2.7,6.3c-16.7-12.1-29.7-15.9-29.7-15.9c9.2,4.7,25.2,18.3,30,23.9c4.8,5.6,5.7,7.2,5.7,9.9s-1.7,4.5-1.7,5.7
		c0,1.2,0.7,2.4,2,2.4c2.2,0,6.1-5,6.1-5s7.2,5.1,7.2,11.5c0,6.4-8.1,3.9-14.6,9.5c0,0-16.3-6.9-35.6-9.1c-17-1.9-26.8-0.8-26.8-0.8
		L291,172.2z"/>
	<path fill="#8A6728" d="M78.9,113.1c10.1,7.6,21.8,11.2,31.9,11.2c14.2,0,27.3-8.1,27.3-8.1s-16.1,15.2-38.5,15.8l-14,4.8l6.3,3.3
		l7.9-0.3c0,0-8.2,8.7-25.3,9.4c0,0-3.5,3.7-0.9,23.5c0,0,2.4-1.8,5.5-2.6c0,0-1.5-0.8-1.3-1.6c0.2-0.8,6.4-0.2,6.4,3.2
		c0,1.6-1.2,1.8-2.3,6.3c0,0-1.9,1.3-2.6,2.4c0,0,3.4-0.8,4.2,1.7c0.8,2.4,3.2,2.6,3.9,6.1c0,0,1.4,0.6,2.1-0.3c0,0-0.4,1.9-4.1,4.1
		l3.2,0.5c0,0,0.2,4.2-3.7,7.5c0,0,1.1,2.4,6,7.5c0,0,6.5-4.8,7.1-5.5c0.6-0.7,0.7-1.5,2.6-2.6c2-1.1,1.7-3.9,1.7-3.9l1.7-3.1
		l19.3-7.8c0,0-4.4-1.7-4.4-5.3c0-1.9,2-3.8,1.5-4.4c-0.5-0.6,0.8-2.4,0.8-2.4s-2.3,1.7-4.2-0.1c-1.9-1.7-1.2-4.9-0.4-5.8l-2.8-0.5
		l0.1-0.4c0,0,4.8-0.4,6-1.6c0,0-3.2,0.2-2.6-0.9c0.6-1.1,1.8-1.7,4.8-0.9c2.9,0.8,4.5,0.8,4.8,2c0.3,1.3,1.5,4.5,4.1,6.1
		c3.2,2.1,5.9,0.4,8.3,5.7l10.6-1v-7.3l34.8-2.5l-10.2-4.1l-9.9-2c0,0,15.4,0.4,44.7,6c6.3,1.2,12.5,2.5,18.7,4
		c0,0-5.4-5.8-11.3-10.6c0,0-22.5-6.5-53.1-10.7c0,0,16.6,0.5,47.1,6.8c-10.6-8.6-19.5-11-19.5-14.9c0-2.5,4.9-6.4,4.9-6.4l7.2-5.7
		l15.9-6.1l-0.5-4.6l1.2-1c0,0-1.2-3.1,2.4-2.8l0.2-0.3c0,0-14.5-5.5-48.6-5.8l3.5,3.5c0,0-3.8,0.2-6.9-0.3c0,0-1.3,2.8,0.8,6.8
		l-3.6-0.3l4.9,2.5c0,0-3-0.2-3.2,3c0.1,2.7-4.2,2.8-4.2,2.8l0.5,1.7l-2.9-1.3l1.7,2.1c-7.9,0.5-10.3-1.3-8.6-3.7
		c0.7-0.9,0.1-2-1.4-3.3l0.1-1.5c0,0,3.8,0.6,4.9,0.8c0,0-1.4-1.2-4.9-2.5c0.5-2.1,2.2-1.1,3.3-4c0,0,2.3,0.5,3.9,1.2
		c0,0-0.8-1.6-5.2-2.8c0,0,2.4-0.3,4-0.4c1.6-0.1,1.6-1.6,1.6-1.6c-16.2,1.2-32.3,6.1-42,8.6l3.3-3.6c0,0-10.3,2.9-19.4,2.9
		S87.1,115.2,78.9,113.1z"/>
	<path fill="#8A6728" d="M307.9,168c-1.2-0.2-2.3-0.3-3.5-0.4c-13-1.4-21.7-1.1-25.1-0.9l-1.5-0.7c0,0-4.4-6.9-12.4-8.8
		c0,0,7.9-2.8,18.1-2.8s16.6,3.4,21,3.4c3.9,0,3.3-2.5,3.3-2.5c2.2,2,0.7,5.3-4,5.5C303.9,160.8,304.2,164.3,307.9,168z"/>
	<path fill="none" stroke="#231F20" stroke-width="0.1" d="M336.5,123.5c0.8,1.3,1.3,2.9,1.3,4.6c0,4.2-2.7,6.3-2.7,6.3
		c-4.5-3.3-8.8-5.9-12.5-8.1C330.7,127.1,334.2,126.6,336.5,123.5z"/>
	<path fill="#185465" d="M192.3,197.4c19.7,7.8,17.3,27,18.3,38.9c0.2,21.8,3.7,34.7,23.3,44.6c0,0,15.9-8.5,20.6-23.3
		c-10.5-7-9.9-19.1-9.9-25.3c0-16.6-3.7-29.4-22.2-32.6c12.8,8.8,13.2,37.6,13.2,41.5c0,13.2,3.9,19.3,3.9,19.3s-6.6-1.9-8.5-23
		C230,200.7,208.4,192.7,192.3,197.4z"/>
	<path fill="#231F20" d="M251,147.8c0,0,8.8-5,19.3-5c11.3,0,22.1,2.7,22.1,2.7s2.8-2.9,2.8-9.1c0-10-8.9-16.2-8.9-16.2
		s2.7,4.6,2.7,10.6c0,7.2-6,10.4-12.8,10.4c-10.2,0-18.6-5.6-18.6-5.6l-13.4-5.5l-2.7-5l0.3-4.6c0,0,1-1.6,2.5-2l-0.3-1.6l1.4,1.3
		c0,0,4.2-1.4,4.2-4.6c0-1.8-2-2.9-3.4-2.9s-1.8,0.6-2.9,0.6c-1.1,0-0.8-1.1-2.7-0.1c-2,1-8,3-8,3s-3.3,1-4.8-1.3
		c-1.5-2.3-3.6-2.4-4.6-2.4c-2.8,0.5-0.3,2.1-0.3,2.1l-0.2,0.3c0,0-2.9-0.5-2.5,2.3l-2.9,8.7l-15.6,4.1l-5.7,5.8l0.1,0.5
		c0,0,6.8-2.4,14.3-1.7l5.7,7.9l11.6,6.5l9.6,2.5l6.4,2.4c0,0,7.8,3.6,19.1,14.9C263,166.9,262.9,160.8,251,147.8z"/>
	<path fill="#8A6728" d="M243.9,118.8c-1.2,0.6-2,1.8-2,1.8l-0.3,4.6l2.7,5l13.4,5.5c0,0,8.4,5.6,18.6,5.6c3.8,0,7.4-1,9.8-3.2
		c0,0-2.5,1.2-6.5,1.2c-4,0-7.2-1.5-15.3-7.7C256.2,125.3,249.1,120.9,243.9,118.8z"/>
	<path fill="#8A6728" d="M291.8,126c1.8,2.7,3.4,6.2,3.4,10.5c0,6.2-2.8,9.1-2.8,9.1s-10.8-2.7-22.1-2.7c-10.5,0-19.3,5-19.3,5
		s10.1-0.4,12.8,9.7c0,0,15.4-10.6,38.5-9.5C301.7,139.8,296.8,131.8,291.8,126z"/>
	<path fill="#231F20" d="M307.9,155.3c0,0,0.5,2.5-3.3,2.5c-4.4,0-10.8-3.4-21-3.4s-18.1,2.8-18.1,2.8l-0.8-0.2
		c1.7-1,5.7-3.3,11.5-5.2C286,148.5,302.1,149.8,307.9,155.3z"/>
	<path fill="#231F20" d="M217,158.4c0,0-22.5-6.5-53.1-10.7c0,0,16.6,0.5,47.1,6.8c25.6,4.8,60.3,16,72.7,23.2
		c1.5,1.6,1.4,1.4,1.4,2.8c0,1.4-1.5,2-2.6,2c-1.1,0-1.1,0.1-5.5-2.2C272.6,178,250.5,167.7,217,158.4z"/>
	<path fill="#231F20" d="M306.2,110c-0.1,0.3-0.4,0.3-0.6,0.5c-0.2,0.1-0.6,0.3-0.9,0.4c-0.6,0.1-1.3,0.1-1.6,0.7
		c0.2,0.1,0.3,0.5,0.4,0.7c0.1,0.3,0.3,0.6,0.6,0.7c0.5,0.4,1.1,0.8,1.4,1.4c-0.4,0.1-0.8-0.3-1.2-0.5c-0.3-0.2-0.9-0.2-1.1-0.4
		c0,0.8,0.6,1.3,1,1.8c0.7,0.7,1.6,1.2,2.6,1.4c0.2,0.1,0.5,0.1,0.7,0.2c0.3,0.1,0.6,0.1,0.9,0.2c0.4,0.1,0.8,0.5,1.3,0.6
		c0.2,0.1,0.4,0.1,0.7,0.1c0.2,0,0.7,0.2,0.8,0.1c0.1-0.1-0.2-0.7-0.2-0.8c-0.2-0.3-0.5-0.6-0.7-1c-0.4-0.7,0.1-0.5,0.6-0.3
		c0.5,0.2,0.9,0.5,1.3,0.8c0.3,0.2,1.1,0.7,1.5,0.7c0.1-0.6,0-1.4-0.3-2c-0.3-0.7-0.5-1.5-1-2.1c-0.5-0.5-1.1-0.9-1.7-1.3
		c-0.3-0.2-0.6-0.4-0.9-0.5c-0.2-0.1-0.5-0.3-0.7-0.2c-0.1,0-0.2,0.3-0.3,0.4c-0.6,0.3-1-0.2-1.2-0.6c-0.2-0.4-0.4-0.7-0.7-1
		L306.2,110z"/>
	<path fill="#231F20" d="M291.8,97.9c0,0.4,0.2,1.1-0.1,1.4c-0.5,0.4-1.2-0.1-1.7-0.3c-0.3-0.2-1.1-0.6-1.3-0.1
		c-0.1,0.3,0.5,1,0.6,1.4c0.4,0.2,0.6,0.9,0.5,1.3c-0.3,0.1-0.7,0-0.8-0.2c-0.5-0.1-0.9-0.5-1.3-0.8c0,0.2,0.2,0.6,0.3,0.8
		c0.2,0.4,0.4,0.5,0.7,0.8c0.5,0.4,1,0.8,1.5,1.2c0.5,0.5,1.1,0.9,1.8,0.9c1,0,1.7,0.1,2.7,0.4c0.5,0.2,1,0.4,1.3,0.9
		c0.3,0.6,0.6,0.9,1.1,1.3c0.7,0.6,1.3,1.1,2.1,1.5c0.3,0.2,1.9,0.7,2,0.1c-0.2-0.1-0.5-0.6-0.5-0.8c-0.3-0.2-0.6-0.9-0.7-1.3
		c-0.1-0.4-0.1-0.4,0.3-0.5c0.4,0,0.5,0,0.7,0.2c0.3,0.4,0.5,0.9,0.8,1.2c0.3,0.3,0.8,0.6,1.2,0.7c0.3-0.4,0.1-0.6,0.1-1
		c0-0.4,0.1-0.8-0.1-1.1c-0.1-0.2-0.4-0.4-0.6-0.5c-0.1-0.1-0.6-0.2-0.6-0.2c-0.3-0.4,0.5-0.6,0.7-0.7c0-0.6-0.1-1.4-0.6-1.8
		c-0.4-0.3-1.1-0.8-1.2-1.4c-0.4-0.1-0.4,0.4-0.7,0.6c-0.4,0.2-0.7-0.1-1-0.4c-0.5-0.5-1.1-0.8-1.5-1.3c-0.3-0.4-0.5-0.7-1-0.9
		c-0.4-0.2-1-0.1-1.4-0.1c-0.5,0-0.8,0.1-1.3,0.3c-0.3,0.1-0.7,0.2-0.9-0.1c-0.2-0.2-0.2-0.7-0.4-1L291.8,97.9z"/>
	<path fill="#231F20" d="M280.5,106.9c0.2,0.2,0.5,0.4,0.8,0.6c0.2,0.1,0.5,0.5,0.7,0.5c0.6,0.6-0.7,1.1-1,1.4
		c-0.4,0.4-1.1,1-0.9,1.7c0.1,0.3,0.3,0.5,0.4,0.9c0.1,0.4,0,0.8,0.1,1.2c0.1,0.5,1,1.4,1.4,1.6c0.6,0.2,0.7-0.4,1-0.7
		c0.2-0.2,0.7-0.1,1,0c0.4,0.1,0.7,0.2,1.1,0.2c0.2,0,1.6,0.1,1.1,0.6c-0.4,0.4-1.3-0.2-1.7,0.2c0,0.3,0.5,0.4,0.7,0.5
		c0.3,0.1,0.6,0.3,0.8,0.5c0.4,0.3,0.7,0.4,1.2,0.5c0.3,0.1,0.7,0,0.9-0.1c0.3-0.1,0.5-0.2,0.8-0.3c0.3-0.1,0.7-0.1,1.1-0.1
		c0.4,0,0.7-0.1,1.1,0.1c0.4,0.2,0.8,0.4,1.2,0.5c-0.2-0.2-0.3-0.6-0.5-0.9c-0.1-0.2-0.3-0.8-0.2-1c0.1-0.4,0.7-0.3,0.8-0.7
		c0.1-0.4-0.2-0.6-0.3-0.9c-0.1-0.5-0.2-0.6-0.5-0.9c-0.2-0.2-0.5-0.4-0.7-0.7c-0.2-0.2-0.2-0.3-0.3-0.5c-0.3-0.7-0.8-1.3-1.4-1.7
		c-0.6-0.4-1.3-0.7-2-1c-0.4-0.2-0.6-0.4-1.1-0.5c-0.3,0-0.9-0.1-1,0.2c0,0.3,0.4,0.6,0.4,0.9c0.1,0.6-0.2,0.6-0.6,0.5
		c-0.6-0.2-1-0.7-1.5-1c-0.4-0.2-0.7-0.4-1.1-0.6c-0.4-0.2-0.7-0.6-1.1-0.8L280.5,106.9z"/>
	<path fill="#231F20" d="M273.4,115.1c0-0.1,0-0.2-0.1-0.1c0,0,0-0.1,0-0.1c-0.3,0-0.5-0.5-0.6-0.7c-0.2-0.3-0.3-0.5-0.6-0.7
		c-0.6-0.4-1.2-0.8-1.8-1.2c-0.6-0.4-1.2-0.9-1.6-1.5c-0.2-0.3-0.2-0.5-0.5-0.8c-0.2-0.2-0.6-0.4-0.9-0.5c-0.8-0.2-1.8,0.5-2.4,1
		c-0.4,0.3-0.8,1.1-1.3,1c-0.8-0.1-1.5-0.6-2.2-0.7c-0.1,1.2,1.4,1.1,1.9,2c0,0,0.1,0,0.1,0c0.1,0.3,0.3,0.7,0,0.9
		c-0.3,0.2-0.8,0-1.1-0.2c-0.2-0.1-0.3-0.2-0.5-0.3c-0.2-0.1-0.3-0.3-0.5-0.4c-0.3-0.2-0.8,0.1-0.8,0.5c0,0.2,0.2,0.4,0.2,0.6
		c0,0.2,0,0.4,0,0.6c0,0.3-0.1,0.6-0.3,0.8c-0.2,0.3-0.6,0.4-0.6,0.9c0.1,0.5,0.7,0.7,1.1,0.9c0.3,0.2,0.7,0.4,0.7,0.7
		c0.2,0,0.2,0.2,0.2,0.3c-0.4,0.2-0.9-0.1-1.3-0.2c-0.4-0.1-0.8-0.1-1.2-0.1c-0.4,0.7,1.1,1.5,1.6,1.6c0.8,0.3,1.7,0.3,2.5,0.3
		c0.6,0,1.1,0.2,1.6,0.2c0.5,0,1,0.1,1.5,0c0.5,0,0.8-0.2,1.2-0.4c0.5-0.2,0.6-0.4,0.9-0.8c0.4-0.6,1-1.1,1.5-1.7
		c0.4-0.5,1.2-1.1,0.7-1.8c-0.2-0.3-0.6-0.4-0.9-0.7c-0.2-0.2-0.6-0.7-0.3-1c0.2-0.2,0.8,0,1,0c0.3,0.1,0.7,0.4,1,0.6
		c0.3,0.1,0.4,0.2,0.6,0.4c0.2,0.1,0.8,0.3,0.8,0.4L273.4,115.1z"/>
	<path fill="#231F20" d="M261.2,99.2c0.1,0.1,0.4,0.2,0.5,0.3c0.2,0,0.6,0.5,0.7,0.6c0.2,0.2,0.4,0.4,0.7,0.6
		c0.2,0.2,0.4,0.3,0.6,0.5c0.2,0.2,0.6,0.2,0.7,0.5c0.3,0,1,0.3,1.3,0.5c0.4,0.2,0.8,0.3,1.3,0.5c1.1,0.4,2.4,0.6,3.6,0.6
		c0.1-0.5,0.1-0.9-0.3-1.3c-0.3-0.4-0.8-0.7-0.8-1.2c0.7-0.4,1.7,0.7,2.2,1.2c0.6,0.6,1.4,1.2,2,1.7c0.3,0.1,0.7,0.2,1,0.1
		c0.4-0.1,0.4-0.3,0.7-0.6c0.6-0.6,1.6-0.5,2.4-0.5c0.9,0,1.5-0.4,1.7-1.3c0.1-0.3,0.2-0.8,0.1-1.1c-0.1-0.3-0.3-0.6-0.5-0.9
		c-0.3-0.4-0.7-0.8-1.1-1.1c-0.4-0.3-1.4-0.6-1.6-1.1c-0.3-0.6,0.4-0.6,0.8-0.5c0.3,0.1,0.9,0.7,1.3,0.5c-0.1-0.2-0.5-0.4-0.7-0.6
		c-0.3-0.2-0.5-0.5-0.8-0.7c-0.5-0.5-1.1-0.8-1.8-0.8c-0.7,0-1.4,0.2-2.1,0.4c-0.4,0.1-1.8-0.1-2,0.3c0.3,0.4,1.9,1.3,1.6,2
		c-0.1,0.3-0.9,0.3-1.2,0.2c-0.2-0.1-0.4-0.4-0.6-0.5c-0.2-0.1-0.6-0.3-0.7-0.5c-0.3-0.1-0.6-0.4-0.9-0.6c-0.3-0.2-0.6-0.4-1-0.5
		c-0.7-0.3-1.7-0.4-2.5-0.2c-0.3,0.1-0.9,0.3-1.2,0.5c-0.3,0.2-0.6,0.6-0.9,0.8c-0.4,0.2-0.9,0.3-1.2,0.6c-0.4,0.3,0.1,0.6,0.4,0.9
		c0.2,0.2,0.5,0.4,0.7,0.7c0.2,0.2,0.1,0.5,0.2,0.8c-0.4,0.2-1.2-0.1-1.4-0.5L261.2,99.2z"/>
	<path fill="#231F20" d="M240.6,98.5c0.2-0.1,0.9,0.3,1,0.5c0.2,0.2,0.7,0.4,0.8,0.7c0.3,0.7-1,1.1-1.4,1.3
		c-0.5,0.3-1.3,0.5-1.5,1.1c-0.2,0.6,0.6,1.2,0.7,1.7c0,0.2,0,0.6,0,0.8c-0.5,0.1-1.2-0.3-1.6-0.6c-0.4-0.3-0.9-0.4-1.3-0.7
		c0,0.6,0.8,1.2,1.3,1.4c0.1,0.4,0.7,0.5,1,0.7c0.3,0.2,0.7,0.6,0.6,1c-0.1,0.5-0.7,0.3-1.1,0.1c-0.5-0.2-0.7-0.4-1.3-0.3
		c-0.1,0.4-0.4,0.6-0.2,1c0.1,0.4,0.4,0.5,0.6,0.8c0.3,0.4,0.5,0.6,1,0.7c0.5,0.1,1,0,1.5,0c0.8,0,1.6,0,2.4-0.1
		c0.4,0,0.7-0.1,1.1-0.2c0.4-0.1,0.8-0.4,1.1-0.5c0.4-0.1,0.5-0.1,0.4-0.4c-0.1-0.3-0.2-0.6-0.4-0.8c-0.2-0.4-1-0.8-0.9-1.2
		c0.6-0.2,0.9,0.2,1.3,0.5c0.4,0.3,0.8,0.4,1.2,0.6c0.9,0.3,1.9,0,2.8-0.3c0.8-0.3,1.5-1.1,2.2-1.6c0.6-0.5,1.6-0.3,2.2-0.8
		c0.6-0.5-0.2-1-0.3-1.5c-0.1-0.5,0.1-0.5,0.5-0.6c0.2,0,0.4,0,0.6,0c0.2,0.1,0.3,0.2,0.5,0.3c0.4,0.1,0.4-0.3,0.4-0.6
		c0-0.3,0.1-0.8,0-1.1c-0.2-0.8-1.2-1.1-1.8-1.4c-0.7-0.4-1.3-0.6-2-0.9c-0.6-0.2-1.9-0.4-2.5-0.2c0.3,0.2,0.3,0.4,0.5,0.6
		c0.1,0.1,0.4,0.2,0.4,0.3c0.1,0.4-0.7,0.3-1,0.2c-0.9-0.2-1.6-1.3-2.5-0.7c-0.4,0.2-0.6,0.4-0.9,0.7c-0.3,0.2-0.9,0.2-1.2,0.2
		c-0.4,0-0.9-0.2-1.2-0.2c-0.4-0.1-0.8-0.1-1.2-0.2c-0.3-0.1-0.6-0.2-0.9-0.2H240.6z"/>
	<path fill="#231F20" d="M222.1,106.2c0.1-0.3-0.3-0.6-0.4-0.7c-0.4-0.2-0.7-0.4-0.9-0.7c-0.3-0.3-1.3-1.3-0.7-1.8
		c0.2-0.1,0.5-0.2,0.7-0.3c0.2-0.1,0.3-0.2,0.5-0.3c0.3-0.1,0.6-0.3,0.8-0.5c0.6-0.4,0.9-1,1.4-1.5c0.3-0.4,0.5-0.6,0.7-1
		c0.2-0.4,0.5-0.6,0.8-0.9c0.8-0.4,1.6,0.5,2.3,0.5c-0.5-0.3-0.9-0.9-0.8-1.5c0.1-0.4,0.4-0.6,0.7-0.8c0.4-0.2,0.8-0.4,1.2-0.7
		c1.3-0.8,2.2-2.7,0.6-3.7c-0.5-0.3-1.4-0.7-2-0.4c-0.2,0.1-0.4,0.3-0.7,0.4c-0.3,0.2-0.7,0.2-1,0.2c-0.9,0.1-1.6-0.1-2.4-0.3
		c-0.5-0.1-0.9-0.2-1.4-0.4c-0.5-0.2-1.2-0.4-1.7-0.3c0.1,0.2,0.3,0.2,0.4,0.3c0.1,0.1,0.2,0.3,0.2,0.5c0.2,0.5,0,0.7-0.5,0.7
		c-0.8,0.1-1.7-0.2-2,0.7c-0.4,1.3-1.4,0.8-2.5,0.8c-0.4,0-0.8-0.1-0.8,0.4c0,0.4,0.4,0.6,0.7,0.8c0.9,0.6,1.8,1,2.2,2.1
		c0.3,0.9-0.3,0.6-0.9,0.2c-0.6-0.4-1.1-0.7-1.7-1c-0.9-0.4-1.8-0.9-2.7-1.3c-0.7-0.3-1.7,0-2.3,0.3c-0.6,0.3-1.3,0.7-1.7,1.3
		c-0.3,0.5-0.8,1.6-0.6,2.1c0.3,0.8,1.1,1.4,1.8,1.9c0.3,0.2,0.6,0.5,0.8,0.8c0.1,0.2,0.4,0.7,0.3,0.9c-0.5,0.1-0.9,0-1.3-0.2
		c-0.2-0.1-1.2-0.4-1.2,0c0.4,0.1,0.8,0.6,1.2,0.8c0.3,0.1,0.6,0.2,1,0.4c0.3,0.2,0.6,0.5,1.1,0.4c-0.4,0.7,2.1,0.6,2.5,0.6
		c0.8,0,1.4,0,2.1-0.3c0.3-0.1,0.6-0.1,0.7-0.5c0-0.4,0-0.5-0.2-0.8c-0.1-0.3-0.3-0.8,0-1c0.4-0.2,1,0.5,1.2,0.7
		c0.5,0.5,1,0.9,1.6,1.3c0.4,0.3,0.9,0.6,1.4,0.8L222.1,106.2z"/>
	<path fill="#231F20" d="M190.3,100.3c0-0.4,0.2-0.9,0.2-1.3c0-0.4,0-0.8,0-1.2c0-0.1-0.1-0.4,0-0.5c0.1-0.1,0.4-0.2,0.5-0.3
		c0.4-0.2,0.7-0.5,1.1-0.7c0.6-0.4,1-1.2,1.3-1.9c0.3-0.7,0.7-1.7,0.5-2.5c-0.1-0.4-0.4-0.8-0.6-1.2c-0.2-0.3-0.4-0.6-0.6-0.8
		c-0.6-0.5-1.5-0.7-2.3-0.8c-0.8,0-1.7-0.1-2.5,0.1c-0.4,0.2-0.7,0.2-1.2,0.2c-0.5,0-0.8-0.3-1.1-0.7c-0.2-0.3-0.4-0.7-0.6-1.1
		c-0.1-0.3-0.2-0.7-0.3-0.9c-0.2-0.3-0.6-0.6-0.6,0c0,0.1,0.1,0.4,0.1,0.5c0,0.2,0.1,0.5,0.1,0.7c0.3,1.4,0.6,2.9,0.5,4.4
		c0,0.2,0,0.3-0.1,0.4c-0.3,0.2-0.5-0.3-0.7-0.6c-0.2-0.3-0.4-0.5-0.6-0.8c-0.5-0.7-0.8-1.4-1.6-1.7c-0.8-0.3-1.4,0.2-2.1,0.6
		c-0.5,0.3-1.1,0.7-1.5,1.1c-0.5,0.5-0.8,1.2-0.6,1.9c0.2,0.7,0.9,1.2,0.9,2c0.1,1.1-1.4,0-1.7-0.3c-0.5-0.4-1-0.9-1.3-1.5
		c-0.2,0.6,0,1.7,0.2,2.3c0.3,0.7,0.8,1.8,1.3,2.3c0.3,0.3,0.6,0.5,1,0.7c0.4,0.3,0.7,0.4,1.2,0.5c0.9,0.4,1.8,0.7,2.9,0.3
		c1.4-0.5,2.5-1.5,3.9-1.7c0.8-0.1,1.6-0.1,2.2,0.4c0.4,0.2,0.7,0.5,1,0.7c0.2,0.2,0.5,0.8,0.7,0.9L190.3,100.3z"/>
	<path fill="#231F20" d="M200.6,123.1c-0.4-0.6-0.8-1-1.4-1.3c-0.3-0.1-0.7-0.4-0.4-0.8c0.2-0.3,0.6-0.4,0.8-0.6
		c0.5-0.4,1-1.3,1.3-1.9c0.1-0.3,0.3-0.8,0.2-1.1c-0.1-0.3-0.4-0.6-0.6-0.9c-0.2-0.2-0.3-0.4-0.3-0.7c0.6-0.4,1.3,0.4,1.8,0.5
		c-0.2-0.2-0.2-0.5-0.4-0.7c-0.2-0.3-0.5-0.4-0.9-0.6c-0.3-0.1-0.7-0.3-0.6-0.8c0.1-0.4,0.5-0.3,0.8-0.6c0.2-0.2,0.1-0.3,0.2-0.6
		c0-0.2,0.1-0.5,0.1-0.6c-0.1-0.3-0.6-0.6-0.9-0.7c-0.3-0.2-0.7-0.4-1-0.6c-0.2-0.1-0.8-0.4-1.1-0.3c-0.9,0.3,0.4,2.2-1.2,1.2
		c-0.6-0.4-1.5-0.9-2.2-1.1c-0.8-0.2-1.6,0.1-2.3,0.4c-0.8,0.4-1.7,0.8-2.6,1.1c-0.4,0.1-0.9,0.3-1.1,0.5c-0.4,0.4-0.1,0.6,0.2,1
		c0.2,0.3,0.4,0.7,0.6,1c0.1,0.3,0.3,0.6,0.3,1c-0.6,0-1.3-0.5-1.9-0.7c-0.3-0.1-0.6-0.1-0.9-0.2c-0.4-0.1-0.6-0.2-0.9,0.2
		c-0.2,0.4-0.1,0.7-0.3,1.1c-0.2,0.4-0.6,0.5-1,0.6c-0.5,0.2-1,0.5-1.5,0.8c-0.3,0.2-0.8,0.4-1,0.7c-0.5,0.8,0.1,1.6,0.6,2.1
		c0.4,0.4,1.1,0.9,1,1.5c-0.4,0-1.4-0.2-1.7,0.2c0.2,0.1,0.3,0.3,0.5,0.4c0.4,0.3,0.8,0.4,1.1,0.7c0.5,0.3,1.1,0.6,1.5,0.9
		c0.3,0.2,0.6,0.5,0.1,0.6c-0.5,0.1-1-0.1-1.5,0c0.1,0.1,0.2,0.1,0.3,0.2c0.1,0.1,0.3,0.3,0.4,0.4c0.3,0.2,0.7,0.1,1,0.2
		c0.8,0.2,1.2,0.1,2,0.5c0.9,0.4,2,0.8,2.8,0.2c-0.5-0.2-1.8-0.6-1.5-1.3c0.2-0.4,0.8-0.2,1.1,0c0.4,0.3,0.8,0.5,1.2,0.7
		c1.8,0.8,3.2-1.3,4.2-2.3c0.5-0.5,1-1.1,1.7-1.2c0.6-0.1,1.9-0.2,2.2,0.5L200.6,123.1z"/>
	<path fill="#231F20" d="M102.7,157.2c-0.4,0-0.9,0-1.3,0c-0.4,0-0.8-0.4-1.2-0.4c-0.6-0.8-2.2-1.5-3.2-1.7c-0.9-0.1-2.5-0.5-3.5,0
		c-1,0.5-1.9,1.8-2.7,2.6c-0.4,0.5-0.9,1-1.2,1.6c-0.4,0.8-0.4,1.4-0.6,2.3c-0.3,1.6-1.8,1.1-3,1.7c0.9,0.1,1.9,0,2.8,0
		c0.6,0,2.1-0.1,2.4,0.5c-0.6,0.4-1.7,0.5-2.2,1.2c0.3,0.2,0.6,0.3,0.8,0.6c0.2,0.3,0.5,1,0.6,1.3c0.2,0.7,0.1,1.6,0.1,2.4
		c0,1,0,2,0.1,2.9c0.1,0.7-0.1,1.9,0.2,2.6c1.1-0.4,2.4,0,3.5,0.1c-0.2,0.4-0.8,0.6-1.2,0.8c-0.5,0.3-1,0.6-1.5,0.9
		c-1.1,0.6-1.5,2-0.9,3.1c0.6,1.1,1.1,2,2.3,2.6c1.1,0.6,2.5,1,3.8,0.9c2.5-0.3,4-3.4,5.6-5c1.1-1,2.6-1.3,3.5-2.6
		c0.8-1.2,1.3-3.2,1.1-4.6c-0.1-0.6-0.4-1.2-0.8-1.8c-0.4-0.6-1-0.8-1.7-1.1c-0.8-0.4-1.4-0.2-2.2,0.1c-0.6,0.3-1.2,0.3-1.9,0.5
		c0.4-0.5,1-0.9,1.5-1.3c0.3-0.2,1-0.4,1.2-0.7c0.2-0.3,0-1.1,0-1.5c-0.1-0.5-0.5-1-0.7-1.4c-0.6-0.8-1-2-1.3-3
		c-0.1-0.5-0.1-1-0.4-1.3c-0.3-0.4-1-0.8-1.4-0.5c0.3-0.7,2.3-0.9,2.9-1.2L102.7,157.2z"/>
	<path fill="#231F20" d="M116.6,143.9c0-0.4-1.1-0.9-1.3-1.1c-0.6-0.5-1-0.4-1.7-0.6c-0.4-0.1-1.1-0.4-1.6-0.4
		c-0.6,0-0.8,0.4-1.3,0.7c-1.1,0.7-2.4-0.1-3.5,0.4c-1,0.4-1.8,1.2-2,2.3c0.4-0.1,0.4,0.2,0.7,0.4c0.2,0.1,0.3,0.1,0.5,0.2
		c0.4,0.1,1,0.2,1.5,0.2c0.1,0.2,0.1,0.4,0,0.5c-0.3,0-0.8,0.2-1.1,0.2c-0.4,0-0.8,0.1-1.2,0c-0.5-0.1-1.7-0.7-2,0
		c0.7,0.6,0,1.1,0,1.9c0,0.8,0.7,1.7,1,2.4c0.1,0,0.1,0,0.2,0c0.2,1,1.5,1.8,2.4,2.2c0.8,0.3,1.7,0.4,2.6,0.5
		c0.6,0.1,1.2,0.2,1.7,0.1c0-0.6-0.5-0.8-1-1.1c-0.4-0.2-1.5-0.4-1-0.9c0.5-0.4,1.8,0.1,2.4,0.2c0.7,0.1,1.4,0.3,2.1,0.4
		c1.1,0.1,2.7,0.4,3.5-0.4c0.4-0.4,0.6-1.1,0.9-1.6c0.4-0.5,1-0.8,1.2-1.4c0.1-0.5,0.1-1.1,0.1-1.6c0-0.7-0.4-0.9-0.7-1.5
		c-0.4-0.2-0.9-0.6-1.3-0.8c-0.5-0.3-0.8-0.3-1.3-0.4c-0.4,0-1.2,0.1-1.5-0.2c-0.4-0.5,0.1-0.7,0.4-0.8L116.6,143.9z"/>
	<path fill="#231F20" d="M143.9,130.4c-0.2-0.2-0.5,0-0.9-0.1c-0.4-0.1-0.6-0.3-1-0.5c-0.7-0.3-1.4-0.7-2.2-0.8
		c-0.2-0.6-0.4-0.9,0-1.5c0.3-0.5,0.7-0.8,0.8-1.4c0.2-1,0-2.3-0.8-3c-1.6-1.5-4.5-1.5-6.6-1.4c0.2,0.3,0.5,0.4,0.8,0.6
		c0.3,0.3,0.4,0.7,0.9,0.6c0.1,0.2,0.3,0.4,0.3,0.7c0.1,0,0.1,0,0.2,0c0.4,0.9-3.2,0.3-3.7,0.3c-0.4,0-0.7,0-1.1,0.2
		c-0.3,0.3-0.4,0.7-0.7,0.9c-0.5,0.3-1.3,0.5-1.8,0.8c-1,0.7-2,1.5-3.2,1.8c-0.6,0.2-1.3,0.3-1,1c0.2,0.4,0.8,0.9,1.1,1.2
		c0.1,0.1,0.2,0.1,0.3,0.1c0.1,0.3-0.1,0.6-0.4,0.7c-0.5,0.3-0.9-0.2-1.3-0.4c-0.6-0.4-1.2-0.7-1.8-1.1c-0.2,0.6,0,1.4,0.1,1.9
		c0.1,0.3,0.3,0.6,0.3,0.9c0,0.4-0.3,0.6-0.5,0.9c-1.2,1.6,2.2,1.7,3,2.6c-0.8,0.6-2.1,0-2.9-0.2c-0.8-0.2-1.8-0.3-2.6,0.1
		c1.2,0.8,3,1.4,4.5,1.7c0.9,0.2,1.8,0.4,2.7,0.5c0.9,0.1,1.5,0.5,2.4,0.5c0.7,0,1.4-0.1,2.1-0.1c0.9-0.1,1-0.2,1.7-0.7
		c0.6-0.5,0.9-0.6,1.7-0.6c0.6,0,1.3,0.1,1.9-0.1c0.8-0.2,2.4-1,2.2-1.9c-0.2-1-1.2-1.5-0.5-2.6c0.3-0.4,0.5-0.5,1-0.7
		c0.4-0.2,0.6-0.5,0.9-0.7c0.9-0.5,1.7-0.3,2.6-0.1L143.9,130.4z"/>
	<path fill="#231F20" d="M159,150c-0.5-0.1-1,0.5-1.5,0.6c-0.5,0.1-1.3,0.2-1.9,0.1c-1.1-0.2-2.3-0.9-3-1.8
		c-1.4-1.7-2.1-3.9-3.7-5.5c-0.4-0.4-1.1-0.8-1.3-1.3c-0.9-0.3-2-0.2-3-0.3c-0.4,0-2.3-0.4-2.2,0.3c0.6,0,3.4,0.8,2.5,1.9
		c-0.7,0.8-3.2,0-4.1,0.2c-0.9,0.1-0.8,0.8-1.1,1.4c-0.2,0.6-0.6,1.2-0.8,1.7c-0.3,0.7-1.2,2.7-0.7,3.5c0.2,0.5,1.3,0.3,1.8,0.4
		c0.3,0.1,1.4,0.4,1.6,0.6c-0.7,0.6-1.5,0.8-2.4,1.1c-0.8,1.7,2.3,3.5,3.4,4.4c0.5,0.5,1.5,0.9,1.8,1.6c0.5,1.1-0.7,1.4-1.5,1.8
		c-0.1,0.6,1,0.8,1.4,1c0.5,0.1,0.8,0.3,1.3,0.3c0.6,0.1,0.7,0.2,1.2,0.3c1.3,0.4,3.1,0.2,4.3-0.5c0.6-0.3,1.1-0.6,1.9-0.6
		c0.7,0,1.5,0,2.2-0.1c1-0.1,2.4-0.6,3.4-1.1c0.6-0.3,0.9-0.5,0.9-1.2c-0.1-0.5-0.4-1.1-0.7-1.6c-0.5-0.6-1-1.1-1.5-1.7
		c-0.3-0.4-0.9-0.7-1.3-1.1c-0.3-0.3-0.6-0.8-0.7-1.1c-0.2-0.7-0.1-1,0.5-1.2c1-0.4,1.8-1,2.8-1.4L159,150z"/>
	<path fill="#231F20" d="M182.7,142.7c-1-0.1-1.7-0.7-2.7-0.9c-0.1-0.1-0.1-0.4-0.1-0.5c0.7-0.3,1.4-0.5,2.1-0.2
		c0.8,0.3,1.2,0.7,2.1,0.7c-0.4,0.1-0.9-0.8-1.2-1c-0.4-0.4-0.9-0.5-1.4-0.8c-0.8-0.6-1.2-1.6-2.2-2.1c-0.4-0.2-3.6-0.8-3-1.6
		c0.3-0.3,1.6,0.1,1.2-0.5c-0.1-0.2-1.5-0.8-1.8-0.9c-0.5-0.2-1.2-0.2-1.8-0.2c-0.6,0-1.5-0.2-2.1-0.1c-0.5,0.1-0.2,0-0.5,0.4
		c-0.2,0.3-0.2,0.7-0.5,0.9c-0.5,0.6-1.2,0.3-1.9,0.4c-0.3,0-1.5,0.3-1.5,0.7c0,0.5,1.4,0.7,1.8,0.8c0.3,0.1,1.5,0.5,1,1.1
		c-0.3,0.4-1.4,0-1.7-0.1c-0.7-0.3-1.6-0.7-2.4-0.5c0.1,0.8,2,1.5,2.7,1.8c0.3,0.1,1,0.3,0.7,0.9c-0.2,0.4-1,0.2-1.4,0.2
		c0.6-0.1,1.2,0.4,1.7,0.7c0.6,0.4,1.3,0.7,1.8,1.2c0.5,0.5,0.2,1,0.5,1.7c0.2,0.5,0.8,0.9,1.2,1.2c0.8,0.5,2.3,0.4,3.1-0.1
		c0.5-0.3,1.1-0.6,1.5-0.9c0.5-0.3,0.6-0.8,1.1-1.2c0.5-0.4,1.1-0.9,1.8-0.9L182.7,142.7z"/>
	<path fill="#231F20" d="M114,101.4c-1.2,0-2.2,0.6-3.5,0.6c-1.5,0.1-2.6-0.6-4-0.7c-1.4-0.1-2.5-0.3-3.5,0.8
		c-0.9,1-1.7,1.9-2.8,2.7c-0.6,0.4-0.5,0.8-0.9,1.3c-0.3,0.4-0.9,0.4-1.3,0.4c-0.5,0.1-1.1,0.3-1.6,0.4c-0.5,0.2-1.2,0.2-1.7,0.4
		c0.3,0.1,0.8,0.1,1.2,0.1c0.7,0,1.1,0.2,1.7,0.4c1.1,0.3,1.6,0.6,0.7,1.6c-0.5,0.6-0.7,1.3-0.2,1.9c0.3,0.3,0.7,0.5,1,0.6
		c0.3,0.1,0.6,0.2,0.9,0.4c0.3,0.1,0.3,0.4,0.7,0.4c0,0.1,0,0.3,0,0.4c-0.9,0.3-2.7-0.5-3.3,0.5c1,0.9,1.7,1.1,3.2,1.1
		c1.3,0,2.7-0.2,3.8-1c0.6-0.4,0.9-0.5,1.7-0.5c0.4,0,0.9,0.1,1.3,0c0.4-0.1,0.4-0.2,0.7-0.5c0.7-0.6,1-0.7,1.9-0.8
		c0.7-0.1,0.9-0.3,1.4-0.7c0.8-0.8,1.2-1.3,0.8-2.6c-0.1-0.4-0.3-0.7-0.3-1.2c0-0.6,0.3-1,0.4-1.5c0.1-0.5,0-1-0.2-1.4
		c-0.1-0.3-0.5-0.7-0.5-1.1c0-1,1.1-0.8,1.7-1.2L114,101.4z"/>
	<path fill="#231F20" d="M151.9,91c-1.3,0-2.2,1.1-3.4,0.3c-0.6-0.4-0.8-0.5-1.6-0.5c-0.8,0-1.1,0-1.7,0.4c-1,0.7-2.3,1.1-3.2,1.8
		c-0.8,0.5-1,0.9-2,0.9c-0.7,0-1.3,0-1.9,0.1c-1.4,0.3-2.6,1.3-3.6,2.2c-0.7,0.6-2.1,2.6-1.7,3.6c0.9,0.2,1.3,0.5,2.3,0.1
		c0.2-0.1,0.8-0.4,1-0.2c0.5,0.4-0.1,1-0.4,1.2c-0.8,0.5-1.6,1.1-2.4,1.5c-0.8,0.5-1.4,0.6-1.8,1.5c0.7,0,1.5,0,2.2-0.2
		c0.6-0.1,1.3-0.5,2-0.4c0.1,0.3,0.6,0.4,0.8,0.7c0.4,0.3,0.5,0.7,0.9,1c0.5,0.4,1,0.6,1.6,0.7c1.4,0.4,3,0.3,4.5,0.3
		c1.3,0,2.6,0,3.9-0.1c0.6,0,1.3-0.1,1.8-0.3c0.5-0.2,1.4-0.8,1.6-1.3c-0.3-0.4-1.9-0.1-2.4-0.1c-0.4-0.9,0.6-1.1,1.2-1.2
		c0.8-0.2,1.1-0.4,1.7-0.9c1-0.7,1.2-1.9,2-2.8c0.4-0.4,0.8-0.6,1.3-0.9c0.6-0.4,1.1-0.9,1.6-1.3c0.9-0.8,1.3-2.6,0.6-3.7
		c-0.3-0.5-1.9-1.4-2.4-1.4c-0.8,0-2.1,0.6-2.8,1c-0.3,0.2-2.6,1.2-2.2,0.1c0.2-0.8,1.8-0.9,2.2-1.6L151.9,91z"/>
	<path fill="#231F20" d="M170.9,110.1c0,0-1.3,2.8,0.8,6.8l-3.6-0.3l4.9,2.5c0,0-3-0.2-3.2,3c0.1,2.7-4.2,2.8-4.2,2.8l0.5,1.7
		l-2.9-1.3l1.7,2.1c-7.9,0.5-10.3-1.3-8.6-3.7c0.7-0.9,0.1-2-1.4-3.3l0.1-1.5c0,0,3.8,0.6,4.9,0.8c0,0-1.4-1.2-4.9-2.5
		c0.5-2.1,2.2-1.1,3.3-4c0,0,2.3,0.5,3.9,1.2c0,0-0.8-1.6-5.2-2.8c0,0,2.4-0.3,4-0.4c1.6-0.1,1.6-1.6,1.6-1.6
		c1.2-0.1,1.7-0.9,3.5-0.9S169.7,108.9,170.9,110.1z"/>
	<path fill="#FFFFFF" d="M275.9,219.3c0,0,1.7,10.3-9.2,22c0,0,19-3,29-24.5c0,0,1.1,3.1,0.7,9.9c0,0,5.2-1.4,13.5-13.2
		c0,0,0.5,3.7,3.3,6.9l7.2-6.1c0,0,0.9,2.2,1.2,6.6c0,0,2.4-1,6.4-3.9c0,0,0.1,4.2-7.6,18.8c10.7-5.5,21.1-17.6,21.1-22.7
		c0-2.4-2.5-4.7-5.5-4.7c-3,0-5.4,2.4-5.4,2.4s-1.7-2-4.6-2c-2.9,0-5.3,2.7-5.3,2.7s0.3-2.2-2.5-2.2
		C315.3,209.3,302.6,217.8,275.9,219.3z"/>
	<path fill="#FFFFFF" d="M291.9,255.3c0,0-5.8,10.2-14.7,19.9c0,0-1.3-3.3-2.8-4.1c0,0-5,3.9-6.5,5.9c0,0-2-3.6-3.5-5
		c0,0-3.7,2.9-4.6,4.3c0,0,4.6-8,0.2-21.7c0,0-5.8,18-21.1,28.2c-0.7,0.7-1,4.3,4.8,4.3c9,0,14.3-7.1,14.3-7.1s9.2-1.5,18.2-0.4
		c0,0,3.1,2.9,5.4,2.9C283.7,282.7,292.6,273.1,291.9,255.3z"/>
	<path fill="#FFFFFF" d="M85.2,97.5h-4.3v-1.9c0,0,4.3,0.2-39,1.2c0,0,17.2,5.1,26.5,10.2c0,0,2.3-1.3,3.8-1.4
		c1.5-0.1,1.7-0.7,3.6-0.8c1.9-0.1,1.7-1.2,1.7-1.2h2.8c0,0-0.7-1.6-3-2.3C77.3,101.4,81.1,99,85.2,97.5z"/>
	<path fill="#FFFFFF" d="M30.6,104.1c0,0,4.6,1.8,7,5c0.1,8.1,6.8,14.9,15.5,22h-5.6c0,0,5,3.3,14.2,6c0,0-1.4,1.1-6.1,1.5
		c0,0,7.5,5,25,5c14.6,0,21-4.5,21-4.5l-11.9-1.6c0,0,20.9-2,31.6-10.8c0,0-6.6,4.3-29.1,4.3s-32.5-6.5-32.5-6.5s13.2,2.4,21.6,0.8
		C62.3,112.2,53.3,103.8,30.6,104.1z"/>
	<path fill="#FFFFFF" d="M327.2,201.3c0,0,11.2,0,18.7,8.4c0,0,12.6-2.3,18.6-10.3c-5.9,0.3-7.5-0.8-7.5-2c0-1.2,1.4-1.4,4.9-1.4
		c3.5,0,4.7,0,4.7,0s2.6-0.9,3.1-9.1c-4.6,4.2-10.1,5.4-11,3.5c-1.1-2.4,8.1-3.5,10.9-7.7c0,0,0.5-2-1.4-6.4
		c-3.4,5.7-5.4,6.6-6.9,5.7c-2.3-1.5,4.5-4.1,5.4-8.3l-3.2-3.9C353.9,188.9,337.8,185,327.2,201.3z"/>
	<path fill="#FFFFFF" d="M102.5,196.3c0,0,1.3-1.5,3-2.6l-0.7,2.4h0.4c0,0,2.4-2.7,4.6-2.8c0,0-1.1,1.2,0.6,1.9
		c3.3,1.2,7.2,0.6,11.5,1.1c1.2,0.5,2,0.7,4.6-0.2c2.6-1,4.5-1,4.5-1s-3.7,1.5-4.5,2.8c0,0,2.5,1.6,2.5,4.4c0,2.8-1,4.8-3.7,6.5
		c-3.7,2.2-4.1,4.7-4.1,4.7l2.4-1.5c0,0-0.7,5.6-6,5.6c-3.1,0-3.9-1.7-5-1.7c-0.7,0-2.7,2.3-2.7,2.3s0.2-2.2,3.8-5.9
		c0,0-2.4,1-3.5,2.4c-5.2-3.1-11.1-3.4-11.1-8.1c0-2,1.6-4.7,1.6-4.7s-1.3,0.1-1.9,1.5l-0.2-2.5l-8,6.6c0,0,4.6,5.1,12.9,11.5
		c8.2,6.3,22.4,15,36.1,20.7c13.7,5.7,25.2,12.3,31.6,19.3c6.4,7,12,17.2,17.9,25.9c5.9,8.6,19.5,23.8,33.4,27.3l-2.8,3.5
		c0,0,10.3,1.8,23.8-0.2l-4.3,4.8c22.3-2.3,40.5-12.4,50.7-31.6c0,0-3.8-3.3-14.5-3.3c-15.7,0-30.1,10.1-44,10.1
		c-13.4,0-23.7-12.3-31.2-24c-7.6-11.7-20.8-38.3-20.8-57.8c0-31.6,22.3-34.3,22.3-34.3s-28.6-6.3-46.7-7.7
		c44,2,92.9,14.6,116.3,26.2c0.7,0.6,1.1,3.8-2,3.8c-2.1,0-8.7-4.5-25.4-10.1c4.1,8,13.9,22,32.9,22c17.8,0,25-11.7,48.2-12.4
		c0.7-13.4-5.8-16.4-20.6-23.7c-14.8-7.3-26.1-10.2-26.1-10.2l-0.6,0.1c0,0,7.2,3.6,14.4,9.4l-1.7,1c0,0,4.1,2.6,10.2,10
		c0,0-9.5,3.9-15.6,3.6c0,0-0.2,1.8-2.3,1.8c-1.5,0-7-2.9-20.4-8.7c-13.4-5.8-49.3-18.4-97.5-24.8c0,0,7.8,2.4,10.7,3.7
		c0,0-4-1.1-7.4-0.6l3.5,2.2c0,0-23.2-1-37,2c0,0,9,2.6,12.5,7.2c0,0-5.6,0.1-9,0.6c0,0,0.9,1.8,0.9,2.6c0,0.8-2.9,2.8-2.9,2.8h2.2
		v5.5c0,0-3.1,4.4-11.7,2.2l0.3-1.4l-5.1,0.5c0,0,3.6-1.7,5.3-3.1c0,0-5.3,2.2-6.4-0.6c0,0-17.4,4.3-25.8,11.2
		C95.1,193.9,99.9,194.7,102.5,196.3"/>
	<path fill="#FFFFFF" d="M218.3,119.2c0,0-15.5,2.6-23.2,15.1l1.2-0.3c0,0,6.7-7.5,24.8-7.5c21,0,34.6,11.9,46.6,13.5
		c0,0-8.1-1.9-11.5-8.7c0,0-0.6,1.9,0.1,3.3c-8.7-4.8-13.7-6.8-14.3-14.2c0,0-1.9,1.5-2,5.1l-1.4-1.1c0,0-0.3,1.4,2,2.7
		c0.8,0.4-0.4,1.5-0.4,1.5s-2.6-0.4-4.9-1.7c0,0,1.8-0.1,1.2-0.8c-0.6-0.7-2.5-2.4-2.9-3.3c-1.1-1.4,1.8-0.7,1.8-0.7
		s-0.9-1.4-3.6-1.9c0,0,0.6-0.9,1.8-0.7s-0.3-1.3,1.4-1.8c1.6-0.5,4.1-2.1,5.4-4.5c1.1-1.7,3.1,0.5,3.1,0.5s-0.5-2.9-4.9-2.9
		c-5.1,0-8.8,2.9-8.8,2.9l3,1.6c0,0-1.3,0.2-2.9-0.5c-1.6-0.7-2.7,1.4-2.7,3.6c0,3,3.5,3.7,3.5,5.3c0,1.6-0.3,3-1.6,1.4l0.1,1.5
		c-3.3-2.5-6.3-2.3-8.3-5.9l2.4,1c0,0-0.2-0.9-2.9-2.3c0,0-0.4-1.1,0.3-1.1l0.1-3h-6.1v0.6L218.3,119.2z"/>
	<path fill="#185465" d="M256.8,141.2v-0.5l-9.2-2.9l-0.2,0.8c0,0,0.5,0.4,0.5,1.6c0,1.2-0.9,2.9-3.4,2.9s-3.6-2.1-3.3-3.6
		c0,0,2.5,0.1,2.5-1.6c0-2.4-10-4.9-23-4.4c11.3,8.7,17.8,12.1,22.6,12.1C249,145.7,256.8,141.2,256.8,141.2z"/>
	<path fill="#FFFFFF" d="M241.2,139.6c0,0,2.5,0.1,2.5-1.6c0-1.5-4.1-3.1-10.4-3.9C233.3,134.1,237.4,136.7,241.2,139.6z"/>
	<path fill="#FFFFFF" d="M210.7,132.6c0,0-1.5-0.3-6.1,0.1c0,0,1.1,2.9,4.2,6c0,0-2.9-0.2-4.2-0.5c8.8,8.7,16.9,11.8,29.6,11.6
		l-1.9,1c0,0,7.9,0.2,14.9,3.1C228.2,141.5,229.4,146.8,210.7,132.6z"/>
	<path fill="#231F20" d="M168.2,196c0,0-2.2,0.1-4.5,1c0,0-2.9-6-7.1-6c-4.1,0-10.7,4.1-10.7,4.1l0.3-1.5c-7.2,0-9,0.4-9,3.1
		c0,2.7,2.8,3,6,5.9c0,0,1.2-1.3,3-1.4l-3.9,3.7c0,0,2.4-1.7,5.2,0.2c2.8,1.9,9.2-0.2,11.7-1.7c0,0-0.8,1.8-2.4,2.7
		c0,0,5.9,1.8,8.5-1.5c1.5-2.4-0.9-5.9-0.9-5.9S166.3,196.7,168.2,196z"/>
	<path fill="#231F20" d="M154.7,215.9c-5.9,1.8-12.4,0.2-19.4,0.1l1-1.3c0,0-2.2,0.3-4,1.3c-1.8,1-5.9,1.3-5.9,4.8
		c0,2.9,2.4,4.7,2.4,4.7l2.3-2.5c0,0,0.3,1.6-0.6,2.7c8.2,5.3,17.4,2.2,21.1,5.9l4.3-2.9c0,0,0.2,0.9-2,4.4c2.7,2.6,4.6,3.4,7.2,3.4
		s4.2-0.5,4.6-4.1l1.1-1.2l-1.6,0.1c0,0,0.4-1.5-0.6-3.3c0,0,0.7-0.7,2.6,0.7c0,0,0.7,0,1.6-1.1c0.9-1.1,0.9-1.1,0.9-1.1l-1,0.1
		c-0.7-5-4.6-7.4-7.3-6.3c0,0-0.5-3.3-4.1-3.3c-1.4,0-4.1,1.6-6.1,1.6L154.7,215.9z"/>
</g>
</svg>
